<svg id="Layer_1" data-name="Layer 1" xmlns="http://www.w3.org/2000/svg" viewBox="0 0 438.05 497.05">
  <defs>
    <style>.svg-first{
      fill: #e51313;
      }.svg-first, .svg-2nd{
      stroke-width: 10px;
      stroke: #f96e6e;
      }.svg-2nd{
      stroke-miterlimit: 10;
      fill: none
      ;stroke-width: 13px;
      }
    </style>
    <title>Untitled-2nd</title>
  </defs>
  <path class="svg-2nd" d="M444.47,363.27c-36.37,8-76.91,13.77-120.17,16.84a829.29,829.29,0,0,1-74.45,94.35c-25.1-27.19-50.41-59.12-74.77-94.81-13.86-20.3-27.4-41.82-40.43-64.37-12.59-21.81-24.08-43.54-34.46-65-18.76-38.76-33.83-76.49-45-111.74,36-8.27,76.31-14.33,119.41-17.67C199.11,84.8,224.56,52.52,249.85,25c25.17,27.38,50.53,59.52,74.89,95.42,13.42,19.74,26.54,40.64,39.15,62.49,13.05,22.62,25,45.17,35.62,67.39C418.39,289.54,433.46,327.72,444.47,363.27Z" transform="translate(-30.79 -1)"/>
  <path class="svg-2nd" d="M444.86,137.32c-11.17,35.6-26.38,73.78-45.35,113-10.38,21.43-21.87,43.17-34.46,65-13.12,22.73-26.77,44.4-40.75,64.83a829.29,829.29,0,0,1-74.45,94.35c-25.1-27.19-50.41-59.12-74.77-94.81C132,376.32,91.66,370.28,55.62,362c11-35.2,25.92-73,44.56-111.74,10.66-22.22,22.57-44.77,35.62-67.39,12.52-21.69,25.52-42.43,38.83-62C199.11,84.8,224.56,52.52,249.85,25c25.17,27.38,50.53,59.52,74.89,95.42C368,123.51,408.52,129.31,444.86,137.32Z" transform="translate(-30.79 -1)"/>
  <path class="svg-2nd" d="M399.51,250.3c18.88,39.24,34,77.42,45,113-36.37,8-76.91,13.77-120.17,16.84-23.15,1.65-47.07,2.51-71.55,2.51-26.66,0-52.64-1-77.68-3C132,376.32,91.66,370.28,55.62,362c11-35.2,25.92-73,44.56-111.74-18.76-38.76-33.83-76.49-45-111.74,36-8.27,76.31-14.33,119.41-17.67,25.17-2,51.32-3,78.12-3,24.64,0,48.7.86,72,2.53,43.24,3.09,83.78,8.89,120.13,16.91C433.69,172.92,418.48,211.1,399.51,250.3Z" transform="translate(-30.79 -1)"/>
  <circle class="svg-first" cx="220.8" cy="249.25" r="41.8"/>
  <line class="svg-2nd" x1="218.71" y1="24.5" x2="413.71" y2="136.5"/>
  <line class="svg-2nd" x1="24.71" y1="361.5" x2="218.71" y2="473.5"/>
  <line class="svg-2nd" x1="24.71" y1="137.5" x2="218.71" y2="24.5"/>
  <line class="svg-2nd" x1="218.71" y1="473.5" x2="413.71" y2="362.5"/>
  <circle class="svg-1" cx="24.02" cy="138.02" r="19.02"/>
  <circle class="svg-1" cx="414.02" cy="362.02" r="19.02"/>
  <circle class="svg-1" cx="219.02" cy="473.02" r="19.02"/>
  <circle class="svg-1" cx="219.02" cy="24.02" r="19.02"/>
  <text x="-30.79" y="-1">
  </text>
</svg>
